<?xml version="1.0" encoding="UTF-8" standalone="yes"?>
<svg height="600mm" width="500mm">
    <g>
        <polyline fill="none" points="35.114172370000006,17.39763737 44.61023513,17.39763737 44.61023513,35.114172370000006 97.12204487,35.114172370000006 97.12204487,17.39763737 150.90944513,17.39763737 150.90944513,35.114172370000006 203.42125486999998,35.114172370000006 203.42125486999998,17.39763737 257.20865513,17.39763737 257.20865513,35.114172370000006 309.72046487000006,35.114172370000006 309.72046487000006,17.39763737 363.50786513,17.39763737 363.50786513,35.114172370000006 416.0196748700001,35.114172370000006 416.0196748700001,17.39763737 469.80707513,17.39763737 469.80707513,35.114172370000006 522.31888487,35.114172370000006 522.31888487,17.39763737 576.1062851300001,17.39763737 576.1062851300001,35.114172370000006 628.6180948699999,35.114172370000006 628.6180948699999,17.39763737 682.4054951300001,17.39763737 682.4054951300001,35.114172370000006 734.91730487,35.114172370000006 734.91730487,17.39763737 788.7047051300001,17.39763737 788.7047051300001,35.114172370000006 841.21651487,35.114172370000006 841.21651487,17.39763737 895.0039151300001,17.39763737 895.0039151300001,35.114172370000006 947.51572487,35.114172370000006 947.51572487,17.39763737 1001.30312513,17.39763737 1001.30312513,35.114172370000006 1053.81493487,35.114172370000006 1053.81493487,17.39763737 1063.31099763,17.39763737 1063.31099763,52.83070737 1081.02753263,52.83070737 1081.02753263,106.61810763 1063.31099763,106.61810763 1063.31099763,159.12991737 1081.02753263,159.12991737 1081.02753263,212.91731763 1063.31099763,212.91731763 1063.31099763,265.42912737 1081.02753263,265.42912737 1081.02753263,319.21652763 1063.31099763,319.21652763 1063.31099763,371.72833737 1081.02753263,371.72833737 1081.02753263,425.51573763 1063.31099763,425.51573763 1063.31099763,478.02754737000004 1081.02753263,478.02754737000004 1081.02753263,531.81494763 1063.31099763,531.81494763 1063.31099763,584.32675737 1081.02753263,584.32675737 1081.02753263,638.11415763 1063.31099763,638.11415763 1063.31099763,690.62596737 1081.02753263,690.62596737 1081.02753263,744.41336763 1063.31099763,744.41336763 1063.31099763,796.92517737 1081.02753263,796.92517737 1081.02753263,850.71257763 1063.31099763,850.71257763 1063.31099763,886.1456476300001 1053.81493487,886.1456476300001 1053.81493487,868.4291126300001 1001.30312513,868.4291126300001 1001.30312513,886.1456476300001 947.51572487,886.1456476300001 947.51572487,868.4291126300001 895.0039151300001,868.4291126300001 895.0039151300001,886.1456476300001 841.21651487,886.1456476300001 841.21651487,868.4291126300001 788.7047051300001,868.4291126300001 788.7047051300001,886.1456476300001 734.91730487,886.1456476300001 734.91730487,868.4291126300001 682.4054951300001,868.4291126300001 682.4054951300001,886.1456476300001 628.6180948699999,886.1456476300001 628.6180948699999,868.4291126300001 576.1062851300001,868.4291126300001 576.1062851300001,886.1456476300001 522.31888487,886.1456476300001 522.31888487,868.4291126300001 469.80707513,868.4291126300001 469.80707513,886.1456476300001 416.0196748700001,886.1456476300001 416.0196748700001,868.4291126300001 363.50786513,868.4291126300001 363.50786513,886.1456476300001 309.72046487000006,886.1456476300001 309.72046487000006,868.4291126300001 257.20865513,868.4291126300001 257.20865513,886.1456476300001 203.42125486999998,886.1456476300001 203.42125486999998,868.4291126300001 150.90944513,868.4291126300001 150.90944513,886.1456476300001 97.12204487,886.1456476300001 97.12204487,868.4291126300001 44.61023513,868.4291126300001 44.61023513,886.1456476300001 35.114172370000006,886.1456476300001 35.114172370000006,850.71257763 17.39763737,850.71257763 17.39763737,796.92517737 35.114172370000006,796.92517737 35.114172370000006,744.41336763 17.39763737,744.41336763 17.39763737,690.62596737 35.114172370000006,690.62596737 35.114172370000006,638.11415763 17.39763737,638.11415763 17.39763737,584.32675737 35.114172370000006,584.32675737 35.114172370000006,531.81494763 17.39763737,531.81494763 17.39763737,478.02754737000004 35.114172370000006,478.02754737000004 35.114172370000006,425.51573763 17.39763737,425.51573763 17.39763737,371.72833737 35.114172370000006,371.72833737 35.114172370000006,319.21652763 17.39763737,319.21652763 17.39763737,265.42912737 35.114172370000006,265.42912737 35.114172370000006,212.91731763 17.39763737,212.91731763 17.39763737,159.12991737 35.114172370000006,159.12991737 35.114172370000006,106.61810763 17.39763737,106.61810763 17.39763737,52.83070737 35.114172370000006,52.83070737 35.114172370000006,17.39763737" stroke="red" stroke-width="0.63779526"/>
        <polyline fill="none" points="35.43307,17.716535 44.2913375,17.716535 44.2913375,35.43307 97.4409425,35.43307 97.4409425,17.716535 150.59054749999999,17.716535 150.59054749999999,35.43307 203.7401525,35.43307 203.7401525,17.716535 256.88975750000003,17.716535 256.88975750000003,35.43307 310.03936250000004,35.43307 310.03936250000004,17.716535 363.18896750000005,17.716535 363.18896750000005,35.43307 416.33857250000005,35.43307 416.33857250000005,17.716535 469.4881775,17.716535 469.4881775,35.43307 522.6377825,35.43307 522.6377825,17.716535 575.7873875,17.716535 575.7873875,35.43307 628.9369925,35.43307 628.9369925,17.716535 682.0865975,17.716535 682.0865975,35.43307 735.2362025,35.43307 735.2362025,17.716535 788.3858075,17.716535 788.3858075,35.43307 841.5354125,35.43307 841.5354125,17.716535 894.6850175000001,17.716535 894.6850175000001,35.43307 947.8346225,35.43307 947.8346225,17.716535 1000.9842275,17.716535 1000.9842275,35.43307 1054.1338325,35.43307 1054.1338325,17.716535 1062.9921,17.716535 1062.9921,53.149605 1080.708635,53.149605 1080.708635,106.29920999999999 1062.9921,106.29920999999999 1062.9921,159.448815 1080.708635,159.448815 1080.708635,212.59842 1062.9921,212.59842 1062.9921,265.748025 1080.708635,265.748025 1080.708635,318.89763 1062.9921,318.89763 1062.9921,372.047235 1080.708635,372.047235 1080.708635,425.19684 1062.9921,425.19684 1062.9921,478.346445 1080.708635,478.346445 1080.708635,531.49605 1062.9921,531.49605 1062.9921,584.645655 1080.708635,584.645655 1080.708635,637.79526 1062.9921,637.79526 1062.9921,690.944865 1080.708635,690.944865 1080.708635,744.09447 1062.9921,744.09447 1062.9921,797.2440750000001 1080.708635,797.2440750000001 1080.708635,850.39368 1062.9921,850.39368 1062.9921,885.8267500000001 1054.1338325,885.8267500000001 1054.1338325,868.110215 1000.9842275,868.110215 1000.9842275,885.8267500000001 947.8346225,885.8267500000001 947.8346225,868.110215 894.6850175000001,868.110215 894.6850175000001,885.8267500000001 841.5354125,885.8267500000001 841.5354125,868.110215 788.3858075,868.110215 788.3858075,885.8267500000001 735.2362025,885.8267500000001 735.2362025,868.110215 682.0865975,868.110215 682.0865975,885.8267500000001 628.9369925,885.8267500000001 628.9369925,868.110215 575.7873875,868.110215 575.7873875,885.8267500000001 522.6377825,885.8267500000001 522.6377825,868.110215 469.4881775,868.110215 469.4881775,885.8267500000001 416.33857250000005,885.8267500000001 416.33857250000005,868.110215 363.18896750000005,868.110215 363.18896750000005,885.8267500000001 310.03936250000004,885.8267500000001 310.03936250000004,868.110215 256.88975750000003,868.110215 256.88975750000003,885.8267500000001 203.7401525,885.8267500000001 203.7401525,868.110215 150.59054749999999,868.110215 150.59054749999999,885.8267500000001 97.4409425,885.8267500000001 97.4409425,868.110215 44.2913375,868.110215 44.2913375,885.8267500000001 35.43307,885.8267500000001 35.43307,850.39368 17.716535,850.39368 17.716535,797.2440750000001 35.43307,797.2440750000001 35.43307,744.09447 17.716535,744.09447 17.716535,690.944865 35.43307,690.944865 35.43307,637.79526 17.716535,637.79526 17.716535,584.645655 35.43307,584.645655 35.43307,531.49605 17.716535,531.49605 17.716535,478.346445 35.43307,478.346445 35.43307,425.19684 17.716535,425.19684 17.716535,372.047235 35.43307,372.047235 35.43307,318.89763 17.716535,318.89763 17.716535,265.748025 35.43307,265.748025 35.43307,212.59842 17.716535,212.59842 17.716535,159.448815 35.43307,159.448815 35.43307,106.29920999999999 17.716535,106.29920999999999 17.716535,53.149605 35.43307,53.149605 35.43307,17.716535" stroke="orange" stroke-width="0.1mm"/>
        <rect fill="none" height="868.1102149999999px" stroke="green" stroke-width="0.1mm" width="1062.9921px" x="17.716535px" y="17.716535px"/>
        <rect fill="none" height="17.078739740000003px" stroke="blue" stroke-width="0.63779526" width="52.51180974px" x="44.61023513px" y="235.06298638px"/>
        <rect fill="none" height="17.078739740000003px" stroke="blue" stroke-width="0.63779526" width="52.51180973999999px" x="150.90944513px" y="235.06298638px"/>
        <rect fill="none" height="17.078739740000003px" stroke="blue" stroke-width="0.63779526" width="52.51180974000005px" x="257.20865513px" y="235.06298638px"/>
        <rect fill="none" height="17.078739740000003px" stroke="blue" stroke-width="0.63779526" width="52.51180974000005px" x="363.50786513px" y="235.06298638px"/>
        <rect fill="none" height="17.078739740000003px" stroke="blue" stroke-width="0.63779526" width="52.51180974000005px" x="469.80707513px" y="235.06298638px"/>
        <rect fill="none" height="17.078739740000003px" stroke="blue" stroke-width="0.63779526" width="52.511809739999876px" x="576.1062851300001px" y="235.06298638px"/>
        <rect fill="none" height="17.078739740000003px" stroke="blue" stroke-width="0.63779526" width="52.511809739999876px" x="682.4054951300001px" y="235.06298638px"/>
        <rect fill="none" height="17.078739740000003px" stroke="blue" stroke-width="0.63779526" width="52.511809739999876px" x="788.7047051300001px" y="235.06298638px"/>
        <rect fill="none" height="17.078739740000003px" stroke="blue" stroke-width="0.63779526" width="52.511809739999876px" x="895.0039151300001px" y="235.06298638px"/>
        <rect fill="none" height="17.078739740000003px" stroke="blue" stroke-width="0.63779526" width="52.511809739999876px" x="1001.30312513px" y="235.06298638px"/>
        <rect fill="none" height="17.078739740000003px" stroke="blue" stroke-width="0.63779526" width="52.51180974px" x="44.61023513px" y="452.09054013px"/>
        <rect fill="none" height="17.078739740000003px" stroke="blue" stroke-width="0.63779526" width="52.51180973999999px" x="150.90944513px" y="452.09054013px"/>
        <rect fill="none" height="17.078739740000003px" stroke="blue" stroke-width="0.63779526" width="52.51180974000005px" x="257.20865513px" y="452.09054013px"/>
        <rect fill="none" height="17.078739740000003px" stroke="blue" stroke-width="0.63779526" width="52.51180974000005px" x="363.50786513px" y="452.09054013px"/>
        <rect fill="none" height="17.078739740000003px" stroke="blue" stroke-width="0.63779526" width="52.51180974000005px" x="469.80707513px" y="452.09054013px"/>
        <rect fill="none" height="17.078739740000003px" stroke="blue" stroke-width="0.63779526" width="52.511809739999876px" x="576.1062851300001px" y="452.09054013px"/>
        <rect fill="none" height="17.078739740000003px" stroke="blue" stroke-width="0.63779526" width="52.511809739999876px" x="682.4054951300001px" y="452.09054013px"/>
        <rect fill="none" height="17.078739740000003px" stroke="blue" stroke-width="0.63779526" width="52.511809739999876px" x="788.7047051300001px" y="452.09054013px"/>
        <rect fill="none" height="17.078739740000003px" stroke="blue" stroke-width="0.63779526" width="52.511809739999876px" x="895.0039151300001px" y="452.09054013px"/>
        <rect fill="none" height="17.078739740000003px" stroke="blue" stroke-width="0.63779526" width="52.511809739999876px" x="1001.30312513px" y="452.09054013px"/>
        <rect fill="none" height="17.078739739999946px" stroke="blue" stroke-width="0.63779526" width="52.51180974px" x="44.61023513px" y="669.1180938800001px"/>
        <rect fill="none" height="17.078739739999946px" stroke="blue" stroke-width="0.63779526" width="52.51180973999999px" x="150.90944513px" y="669.1180938800001px"/>
        <rect fill="none" height="17.078739739999946px" stroke="blue" stroke-width="0.63779526" width="52.51180974000005px" x="257.20865513px" y="669.1180938800001px"/>
        <rect fill="none" height="17.078739739999946px" stroke="blue" stroke-width="0.63779526" width="52.51180974000005px" x="363.50786513px" y="669.1180938800001px"/>
        <rect fill="none" height="17.078739739999946px" stroke="blue" stroke-width="0.63779526" width="52.51180974000005px" x="469.80707513px" y="669.1180938800001px"/>
        <rect fill="none" height="17.078739739999946px" stroke="blue" stroke-width="0.63779526" width="52.511809739999876px" x="576.1062851300001px" y="669.1180938800001px"/>
        <rect fill="none" height="17.078739739999946px" stroke="blue" stroke-width="0.63779526" width="52.511809739999876px" x="682.4054951300001px" y="669.1180938800001px"/>
        <rect fill="none" height="17.078739739999946px" stroke="blue" stroke-width="0.63779526" width="52.511809739999876px" x="788.7047051300001px" y="669.1180938800001px"/>
        <rect fill="none" height="17.078739739999946px" stroke="blue" stroke-width="0.63779526" width="52.511809739999876px" x="895.0039151300001px" y="669.1180938800001px"/>
        <rect fill="none" height="17.078739739999946px" stroke="blue" stroke-width="0.63779526" width="52.511809739999876px" x="1001.30312513px" y="669.1180938800001px"/>
    </g>
    <circle fill="none" r="7.086614" stroke="blue" stroke-width="0.2mm" cx="88.582675" cy="88.582675"/>
    <circle fill="none" r="7.086614" stroke="blue" stroke-width="0.2mm" cx="1009.842495" cy="88.582675"/>
    <g>
        <polyline fill="none" points="35.114172370000006,903.2243873699999 1063.31099763,903.2243873699999 1063.31099763,929.79918987 1081.02753263,929.79918987 1081.02753263,983.58659013 1063.31099763,983.58659013 1063.31099763,992.44485763 1054.45273013,992.44485763 1054.45273013,1010.16139263 1000.6653298699999,1010.16139263 1000.6653298699999,992.44485763 948.1535201300001,992.44485763 948.1535201300001,1010.16139263 894.36611987,1010.16139263 894.36611987,992.44485763 841.85431013,992.44485763 841.85431013,1010.16139263 788.06690987,1010.16139263 788.06690987,992.44485763 735.55510013,992.44485763 735.55510013,1010.16139263 681.76769987,1010.16139263 681.76769987,992.44485763 629.25589013,992.44485763 629.25589013,1010.16139263 575.46848987,1010.16139263 575.46848987,992.44485763 522.95668013,992.44485763 522.95668013,1010.16139263 469.16927987,1010.16139263 469.16927987,992.44485763 416.65747013000004,992.44485763 416.65747013000004,1010.16139263 362.87006987000007,1010.16139263 362.87006987000007,992.44485763 310.35826013,992.44485763 310.35826013,1010.16139263 256.57085987,1010.16139263 256.57085987,992.44485763 204.05905013,992.44485763 204.05905013,1010.16139263 150.27164986999998,1010.16139263 150.27164986999998,992.44485763 97.75984012999999,992.44485763 97.75984012999999,1010.16139263 43.97243987,1010.16139263 43.97243987,992.44485763 35.114172370000006,992.44485763 35.114172370000006,983.58659013 17.39763737,983.58659013 17.39763737,929.79918987 35.114172370000006,929.79918987 35.114172370000006,903.2243873699999" stroke="red" stroke-width="0.63779526"/>
        <polyline fill="none" points="35.43307,903.543285 1062.9921,903.543285 1062.9921,930.1180875 1080.708635,930.1180875 1080.708635,983.2676925 1062.9921,983.2676925 1062.9921,992.12596 1054.1338325,992.12596 1054.1338325,1009.842495 1000.9842275,1009.842495 1000.9842275,992.12596 947.8346225,992.12596 947.8346225,1009.842495 894.6850175000001,1009.842495 894.6850175000001,992.12596 841.5354125,992.12596 841.5354125,1009.842495 788.3858075,1009.842495 788.3858075,992.12596 735.2362025,992.12596 735.2362025,1009.842495 682.0865975,1009.842495 682.0865975,992.12596 628.9369925,992.12596 628.9369925,1009.842495 575.7873875,1009.842495 575.7873875,992.12596 522.6377825,992.12596 522.6377825,1009.842495 469.4881775,1009.842495 469.4881775,992.12596 416.33857250000005,992.12596 416.33857250000005,1009.842495 363.18896750000005,1009.842495 363.18896750000005,992.12596 310.03936250000004,992.12596 310.03936250000004,1009.842495 256.88975750000003,1009.842495 256.88975750000003,992.12596 203.7401525,992.12596 203.7401525,1009.842495 150.59054749999999,1009.842495 150.59054749999999,992.12596 97.4409425,992.12596 97.4409425,1009.842495 44.2913375,1009.842495 44.2913375,992.12596 35.43307,992.12596 35.43307,983.2676925 17.716535,983.2676925 17.716535,930.1180875 35.43307,930.1180875 35.43307,903.543285" stroke="orange" stroke-width="0.1mm"/>
        <rect fill="none" height="106.29921000000002px" stroke="green" stroke-width="0.1mm" width="1062.9921px" x="17.716535px" y="903.543285px"/>
    </g>
    <g>
        <polyline fill="none" points="35.114172370000006,1027.2401323699999 1063.31099763,1027.2401323699999 1063.31099763,1053.81493487 1081.02753263,1053.81493487 1081.02753263,1107.6023351299998 1063.31099763,1107.6023351299998 1063.31099763,1116.4606026299998 1054.45273013,1116.4606026299998 1054.45273013,1134.1771376299998 1000.6653298699999,1134.1771376299998 1000.6653298699999,1116.4606026299998 948.1535201300001,1116.4606026299998 948.1535201300001,1134.1771376299998 894.36611987,1134.1771376299998 894.36611987,1116.4606026299998 841.85431013,1116.4606026299998 841.85431013,1134.1771376299998 788.06690987,1134.1771376299998 788.06690987,1116.4606026299998 735.55510013,1116.4606026299998 735.55510013,1134.1771376299998 681.76769987,1134.1771376299998 681.76769987,1116.4606026299998 629.25589013,1116.4606026299998 629.25589013,1134.1771376299998 575.46848987,1134.1771376299998 575.46848987,1116.4606026299998 522.95668013,1116.4606026299998 522.95668013,1134.1771376299998 469.16927987,1134.1771376299998 469.16927987,1116.4606026299998 416.65747013000004,1116.4606026299998 416.65747013000004,1134.1771376299998 362.87006987000007,1134.1771376299998 362.87006987000007,1116.4606026299998 310.35826013,1116.4606026299998 310.35826013,1134.1771376299998 256.57085987,1134.1771376299998 256.57085987,1116.4606026299998 204.05905013,1116.4606026299998 204.05905013,1134.1771376299998 150.27164986999998,1134.1771376299998 150.27164986999998,1116.4606026299998 97.75984012999999,1116.4606026299998 97.75984012999999,1134.1771376299998 43.97243987,1134.1771376299998 43.97243987,1116.4606026299998 35.114172370000006,1116.4606026299998 35.114172370000006,1107.6023351299998 17.39763737,1107.6023351299998 17.39763737,1053.81493487 35.114172370000006,1053.81493487 35.114172370000006,1027.2401323699999" stroke="red" stroke-width="0.63779526"/>
        <polyline fill="none" points="35.43307,1027.55903 1062.9921,1027.55903 1062.9921,1054.1338325 1080.708635,1054.1338325 1080.708635,1107.2834375 1062.9921,1107.2834375 1062.9921,1116.1417049999998 1054.1338325,1116.1417049999998 1054.1338325,1133.8582399999998 1000.9842275,1133.8582399999998 1000.9842275,1116.1417049999998 947.8346225,1116.1417049999998 947.8346225,1133.8582399999998 894.6850175000001,1133.8582399999998 894.6850175000001,1116.1417049999998 841.5354125,1116.1417049999998 841.5354125,1133.8582399999998 788.3858075,1133.8582399999998 788.3858075,1116.1417049999998 735.2362025,1116.1417049999998 735.2362025,1133.8582399999998 682.0865975,1133.8582399999998 682.0865975,1116.1417049999998 628.9369925,1116.1417049999998 628.9369925,1133.8582399999998 575.7873875,1133.8582399999998 575.7873875,1116.1417049999998 522.6377825,1116.1417049999998 522.6377825,1133.8582399999998 469.4881775,1133.8582399999998 469.4881775,1116.1417049999998 416.33857250000005,1116.1417049999998 416.33857250000005,1133.8582399999998 363.18896750000005,1133.8582399999998 363.18896750000005,1116.1417049999998 310.03936250000004,1116.1417049999998 310.03936250000004,1133.8582399999998 256.88975750000003,1133.8582399999998 256.88975750000003,1116.1417049999998 203.7401525,1116.1417049999998 203.7401525,1133.8582399999998 150.59054749999999,1133.8582399999998 150.59054749999999,1116.1417049999998 97.4409425,1116.1417049999998 97.4409425,1133.8582399999998 44.2913375,1133.8582399999998 44.2913375,1116.1417049999998 35.43307,1116.1417049999998 35.43307,1107.2834375 17.716535,1107.2834375 17.716535,1054.1338325 35.43307,1054.1338325 35.43307,1027.55903" stroke="orange" stroke-width="0.1mm"/>
        <rect fill="none" height="106.29921000000013px" stroke="green" stroke-width="0.1mm" width="1062.9921px" x="17.716535px" y="1027.55903px"/>
    </g>
    <g>
        <polyline fill="none" points="35.114172370000006,1151.25587737 1063.31099763,1151.25587737 1063.31099763,1177.83067987 1081.02753263,1177.83067987 1081.02753263,1231.61808013 1063.31099763,1231.61808013 1063.31099763,1240.47634763 1054.45273013,1240.47634763 1054.45273013,1258.19288263 1000.6653298699999,1258.19288263 1000.6653298699999,1240.47634763 948.1535201300001,1240.47634763 948.1535201300001,1258.19288263 894.36611987,1258.19288263 894.36611987,1240.47634763 841.85431013,1240.47634763 841.85431013,1258.19288263 788.06690987,1258.19288263 788.06690987,1240.47634763 735.55510013,1240.47634763 735.55510013,1258.19288263 681.76769987,1258.19288263 681.76769987,1240.47634763 629.25589013,1240.47634763 629.25589013,1258.19288263 575.46848987,1258.19288263 575.46848987,1240.47634763 522.95668013,1240.47634763 522.95668013,1258.19288263 469.16927987,1258.19288263 469.16927987,1240.47634763 416.65747013000004,1240.47634763 416.65747013000004,1258.19288263 362.87006987000007,1258.19288263 362.87006987000007,1240.47634763 310.35826013,1240.47634763 310.35826013,1258.19288263 256.57085987,1258.19288263 256.57085987,1240.47634763 204.05905013,1240.47634763 204.05905013,1258.19288263 150.27164986999998,1258.19288263 150.27164986999998,1240.47634763 97.75984012999999,1240.47634763 97.75984012999999,1258.19288263 43.97243987,1258.19288263 43.97243987,1240.47634763 35.114172370000006,1240.47634763 35.114172370000006,1231.61808013 17.39763737,1231.61808013 17.39763737,1177.83067987 35.114172370000006,1177.83067987 35.114172370000006,1151.25587737" stroke="red" stroke-width="0.63779526"/>
        <polyline fill="none" points="35.43307,1151.574775 1062.9921,1151.574775 1062.9921,1178.1495775 1080.708635,1178.1495775 1080.708635,1231.2991825000001 1062.9921,1231.2991825000001 1062.9921,1240.15745 1054.1338325,1240.15745 1054.1338325,1257.873985 1000.9842275,1257.873985 1000.9842275,1240.15745 947.8346225,1240.15745 947.8346225,1257.873985 894.6850175000001,1257.873985 894.6850175000001,1240.15745 841.5354125,1240.15745 841.5354125,1257.873985 788.3858075,1257.873985 788.3858075,1240.15745 735.2362025,1240.15745 735.2362025,1257.873985 682.0865975,1257.873985 682.0865975,1240.15745 628.9369925,1240.15745 628.9369925,1257.873985 575.7873875,1257.873985 575.7873875,1240.15745 522.6377825,1240.15745 522.6377825,1257.873985 469.4881775,1257.873985 469.4881775,1240.15745 416.33857250000005,1240.15745 416.33857250000005,1257.873985 363.18896750000005,1257.873985 363.18896750000005,1240.15745 310.03936250000004,1240.15745 310.03936250000004,1257.873985 256.88975750000003,1257.873985 256.88975750000003,1240.15745 203.7401525,1240.15745 203.7401525,1257.873985 150.59054749999999,1257.873985 150.59054749999999,1240.15745 97.4409425,1240.15745 97.4409425,1257.873985 44.2913375,1257.873985 44.2913375,1240.15745 35.43307,1240.15745 35.43307,1231.2991825000001 17.716535,1231.2991825000001 17.716535,1178.1495775 35.43307,1178.1495775 35.43307,1151.574775" stroke="orange" stroke-width="0.1mm"/>
        <rect fill="none" height="106.2992099999999px" stroke="green" stroke-width="0.1mm" width="1062.9921px" x="17.716535px" y="1151.574775px"/>
    </g>
    <g>
        <polyline fill="none" points="35.114172370000006,1275.27162237 1063.31099763,1275.27162237 1063.31099763,1301.84642487 1081.02753263,1301.84642487 1081.02753263,1355.6338251299999 1063.31099763,1355.6338251299999 1063.31099763,1364.49209263 1054.45273013,1364.49209263 1054.45273013,1382.20862763 1000.6653298699999,1382.20862763 1000.6653298699999,1364.49209263 948.1535201300001,1364.49209263 948.1535201300001,1382.20862763 894.36611987,1382.20862763 894.36611987,1364.49209263 841.85431013,1364.49209263 841.85431013,1382.20862763 788.06690987,1382.20862763 788.06690987,1364.49209263 735.55510013,1364.49209263 735.55510013,1382.20862763 681.76769987,1382.20862763 681.76769987,1364.49209263 629.25589013,1364.49209263 629.25589013,1382.20862763 575.46848987,1382.20862763 575.46848987,1364.49209263 522.95668013,1364.49209263 522.95668013,1382.20862763 469.16927987,1382.20862763 469.16927987,1364.49209263 416.65747013000004,1364.49209263 416.65747013000004,1382.20862763 362.87006987000007,1382.20862763 362.87006987000007,1364.49209263 310.35826013,1364.49209263 310.35826013,1382.20862763 256.57085987,1382.20862763 256.57085987,1364.49209263 204.05905013,1364.49209263 204.05905013,1382.20862763 150.27164986999998,1382.20862763 150.27164986999998,1364.49209263 97.75984012999999,1364.49209263 97.75984012999999,1382.20862763 43.97243987,1382.20862763 43.97243987,1364.49209263 35.114172370000006,1364.49209263 35.114172370000006,1355.6338251299999 17.39763737,1355.6338251299999 17.39763737,1301.84642487 35.114172370000006,1301.84642487 35.114172370000006,1275.27162237" stroke="red" stroke-width="0.63779526"/>
        <polyline fill="none" points="35.43307,1275.59052 1062.9921,1275.59052 1062.9921,1302.1653225 1080.708635,1302.1653225 1080.708635,1355.3149275 1062.9921,1355.3149275 1062.9921,1364.1731949999999 1054.1338325,1364.1731949999999 1054.1338325,1381.8897299999999 1000.9842275,1381.8897299999999 1000.9842275,1364.1731949999999 947.8346225,1364.1731949999999 947.8346225,1381.8897299999999 894.6850175000001,1381.8897299999999 894.6850175000001,1364.1731949999999 841.5354125,1364.1731949999999 841.5354125,1381.8897299999999 788.3858075,1381.8897299999999 788.3858075,1364.1731949999999 735.2362025,1364.1731949999999 735.2362025,1381.8897299999999 682.0865975,1381.8897299999999 682.0865975,1364.1731949999999 628.9369925,1364.1731949999999 628.9369925,1381.8897299999999 575.7873875,1381.8897299999999 575.7873875,1364.1731949999999 522.6377825,1364.1731949999999 522.6377825,1381.8897299999999 469.4881775,1381.8897299999999 469.4881775,1364.1731949999999 416.33857250000005,1364.1731949999999 416.33857250000005,1381.8897299999999 363.18896750000005,1381.8897299999999 363.18896750000005,1364.1731949999999 310.03936250000004,1364.1731949999999 310.03936250000004,1381.8897299999999 256.88975750000003,1381.8897299999999 256.88975750000003,1364.1731949999999 203.7401525,1364.1731949999999 203.7401525,1381.8897299999999 150.59054749999999,1381.8897299999999 150.59054749999999,1364.1731949999999 97.4409425,1364.1731949999999 97.4409425,1381.8897299999999 44.2913375,1381.8897299999999 44.2913375,1364.1731949999999 35.43307,1364.1731949999999 35.43307,1355.3149275 17.716535,1355.3149275 17.716535,1302.1653225 35.43307,1302.1653225 35.43307,1275.59052" stroke="orange" stroke-width="0.1mm"/>
        <rect fill="none" height="106.29921000000013px" stroke="green" stroke-width="0.1mm" width="1062.9921px" x="17.716535px" y="1275.59052px"/>
    </g>
    <g>
        <polyline fill="none" points="35.114172370000006,1399.2873673699999 1063.31099763,1399.2873673699999 1063.31099763,1425.86216987 1081.02753263,1425.86216987 1081.02753263,1479.6495701299998 1063.31099763,1479.6495701299998 1063.31099763,1488.5078376299998 1054.45273013,1488.5078376299998 1054.45273013,1506.2243726299998 1000.6653298699999,1506.2243726299998 1000.6653298699999,1488.5078376299998 948.1535201300001,1488.5078376299998 948.1535201300001,1506.2243726299998 894.36611987,1506.2243726299998 894.36611987,1488.5078376299998 841.85431013,1488.5078376299998 841.85431013,1506.2243726299998 788.06690987,1506.2243726299998 788.06690987,1488.5078376299998 735.55510013,1488.5078376299998 735.55510013,1506.2243726299998 681.76769987,1506.2243726299998 681.76769987,1488.5078376299998 629.25589013,1488.5078376299998 629.25589013,1506.2243726299998 575.46848987,1506.2243726299998 575.46848987,1488.5078376299998 522.95668013,1488.5078376299998 522.95668013,1506.2243726299998 469.16927987,1506.2243726299998 469.16927987,1488.5078376299998 416.65747013000004,1488.5078376299998 416.65747013000004,1506.2243726299998 362.87006987000007,1506.2243726299998 362.87006987000007,1488.5078376299998 310.35826013,1488.5078376299998 310.35826013,1506.2243726299998 256.57085987,1506.2243726299998 256.57085987,1488.5078376299998 204.05905013,1488.5078376299998 204.05905013,1506.2243726299998 150.27164986999998,1506.2243726299998 150.27164986999998,1488.5078376299998 97.75984012999999,1488.5078376299998 97.75984012999999,1506.2243726299998 43.97243987,1506.2243726299998 43.97243987,1488.5078376299998 35.114172370000006,1488.5078376299998 35.114172370000006,1479.6495701299998 17.39763737,1479.6495701299998 17.39763737,1425.86216987 35.114172370000006,1425.86216987 35.114172370000006,1399.2873673699999" stroke="red" stroke-width="0.63779526"/>
        <polyline fill="none" points="35.43307,1399.606265 1062.9921,1399.606265 1062.9921,1426.1810675 1080.708635,1426.1810675 1080.708635,1479.3306725 1062.9921,1479.3306725 1062.9921,1488.1889399999998 1054.1338325,1488.1889399999998 1054.1338325,1505.9054749999998 1000.9842275,1505.9054749999998 1000.9842275,1488.1889399999998 947.8346225,1488.1889399999998 947.8346225,1505.9054749999998 894.6850175000001,1505.9054749999998 894.6850175000001,1488.1889399999998 841.5354125,1488.1889399999998 841.5354125,1505.9054749999998 788.3858075,1505.9054749999998 788.3858075,1488.1889399999998 735.2362025,1488.1889399999998 735.2362025,1505.9054749999998 682.0865975,1505.9054749999998 682.0865975,1488.1889399999998 628.9369925,1488.1889399999998 628.9369925,1505.9054749999998 575.7873875,1505.9054749999998 575.7873875,1488.1889399999998 522.6377825,1488.1889399999998 522.6377825,1505.9054749999998 469.4881775,1505.9054749999998 469.4881775,1488.1889399999998 416.33857250000005,1488.1889399999998 416.33857250000005,1505.9054749999998 363.18896750000005,1505.9054749999998 363.18896750000005,1488.1889399999998 310.03936250000004,1488.1889399999998 310.03936250000004,1505.9054749999998 256.88975750000003,1505.9054749999998 256.88975750000003,1488.1889399999998 203.7401525,1488.1889399999998 203.7401525,1505.9054749999998 150.59054749999999,1505.9054749999998 150.59054749999999,1488.1889399999998 97.4409425,1488.1889399999998 97.4409425,1505.9054749999998 44.2913375,1505.9054749999998 44.2913375,1488.1889399999998 35.43307,1488.1889399999998 35.43307,1479.3306725 17.716535,1479.3306725 17.716535,1426.1810675 35.43307,1426.1810675 35.43307,1399.606265" stroke="orange" stroke-width="0.1mm"/>
        <rect fill="none" height="106.29921000000013px" stroke="green" stroke-width="0.1mm" width="1062.9921px" x="17.716535px" y="1399.606265px"/>
    </g>
    <g>
        <polyline fill="none" points="1098.10627237,17.39763737 1125.31887013,17.39763737 1125.31887013,35.114172370000006 1177.83067987,35.114172370000006 1177.83067987,17.39763737 1205.04327763,17.39763737 1205.04327763,53.46850263 1187.32674263,53.46850263 1187.32674263,105.98031237000001 1205.04327763,105.98031237000001 1205.04327763,159.76771263 1187.32674263,159.76771263 1187.32674263,212.27952237 1205.04327763,212.27952237 1205.04327763,266.06692263 1187.32674263,266.06692263 1187.32674263,318.57873237 1205.04327763,318.57873237 1205.04327763,372.36613263 1187.32674263,372.36613263 1187.32674263,424.87794237 1205.04327763,424.87794237 1205.04327763,478.66534263 1187.32674263,478.66534263 1187.32674263,531.1771523699999 1205.04327763,531.1771523699999 1205.04327763,584.9645526300001 1187.32674263,584.9645526300001 1187.32674263,637.47636237 1205.04327763,637.47636237 1205.04327763,691.2637626300001 1187.32674263,691.2637626300001 1187.32674263,743.77557237 1205.04327763,743.77557237 1205.04327763,797.5629726300001 1187.32674263,797.5629726300001 1187.32674263,850.07478237 1205.04327763,850.07478237 1205.04327763,886.1456476300001 1177.83067987,886.1456476300001 1177.83067987,868.4291126300001 1125.31887013,868.4291126300001 1125.31887013,886.1456476300001 1098.10627237,886.1456476300001 1098.10627237,17.39763737" stroke="red" stroke-width="0.63779526"/>
        <polyline fill="none" points="1098.42517,17.716535 1124.9999725,17.716535 1124.9999725,35.43307 1178.1495775,35.43307 1178.1495775,17.716535 1204.7243799999999,17.716535 1204.7243799999999,53.149605 1187.0078449999999,53.149605 1187.0078449999999,106.29920999999999 1204.7243799999999,106.29920999999999 1204.7243799999999,159.448815 1187.0078449999999,159.448815 1187.0078449999999,212.59842 1204.7243799999999,212.59842 1204.7243799999999,265.748025 1187.0078449999999,265.748025 1187.0078449999999,318.89763 1204.7243799999999,318.89763 1204.7243799999999,372.047235 1187.0078449999999,372.047235 1187.0078449999999,425.19684 1204.7243799999999,425.19684 1204.7243799999999,478.346445 1187.0078449999999,478.346445 1187.0078449999999,531.49605 1204.7243799999999,531.49605 1204.7243799999999,584.645655 1187.0078449999999,584.645655 1187.0078449999999,637.79526 1204.7243799999999,637.79526 1204.7243799999999,690.944865 1187.0078449999999,690.944865 1187.0078449999999,744.09447 1204.7243799999999,744.09447 1204.7243799999999,797.2440750000001 1187.0078449999999,797.2440750000001 1187.0078449999999,850.39368 1204.7243799999999,850.39368 1204.7243799999999,885.8267500000001 1178.1495775,885.8267500000001 1178.1495775,868.110215 1124.9999725,868.110215 1124.9999725,885.8267500000001 1098.42517,885.8267500000001 1098.42517,17.716535" stroke="orange" stroke-width="0.1mm"/>
        <rect fill="none" height="868.1102149999999px" stroke="green" stroke-width="0.1mm" width="106.2992099999999px" x="1098.42517px" y="17.716535px"/>
        <rect fill="none" height="17.078739740000003px" stroke="blue" stroke-width="0.63779526" width="52.51180973999999px" x="1125.31887013px" y="235.06298638px"/>
        <rect fill="none" height="17.078739740000003px" stroke="blue" stroke-width="0.63779526" width="52.51180973999999px" x="1125.31887013px" y="452.09054013px"/>
        <rect fill="none" height="17.078739739999946px" stroke="blue" stroke-width="0.63779526" width="52.51180973999999px" x="1125.31887013px" y="669.1180938800001px"/>
    </g>
    <g>
        <polyline fill="none" points="1222.1220173699999,17.39763737 1249.33461513,17.39763737 1249.33461513,35.114172370000006 1301.84642487,35.114172370000006 1301.84642487,17.39763737 1329.0590226299998,17.39763737 1329.0590226299998,53.46850263 1311.3424876299998,53.46850263 1311.3424876299998,105.98031237000001 1329.0590226299998,105.98031237000001 1329.0590226299998,159.76771263 1311.3424876299998,159.76771263 1311.3424876299998,212.27952237 1329.0590226299998,212.27952237 1329.0590226299998,266.06692263 1311.3424876299998,266.06692263 1311.3424876299998,318.57873237 1329.0590226299998,318.57873237 1329.0590226299998,372.36613263 1311.3424876299998,372.36613263 1311.3424876299998,424.87794237 1329.0590226299998,424.87794237 1329.0590226299998,478.66534263 1311.3424876299998,478.66534263 1311.3424876299998,531.1771523699999 1329.0590226299998,531.1771523699999 1329.0590226299998,584.9645526300001 1311.3424876299998,584.9645526300001 1311.3424876299998,637.47636237 1329.0590226299998,637.47636237 1329.0590226299998,691.2637626300001 1311.3424876299998,691.2637626300001 1311.3424876299998,743.77557237 1329.0590226299998,743.77557237 1329.0590226299998,797.5629726300001 1311.3424876299998,797.5629726300001 1311.3424876299998,850.07478237 1329.0590226299998,850.07478237 1329.0590226299998,886.1456476300001 1301.84642487,886.1456476300001 1301.84642487,868.4291126300001 1249.33461513,868.4291126300001 1249.33461513,886.1456476300001 1222.1220173699999,886.1456476300001 1222.1220173699999,17.39763737" stroke="red" stroke-width="0.63779526"/>
        <polyline fill="none" points="1222.440915,17.716535 1249.0157175,17.716535 1249.0157175,35.43307 1302.1653225,35.43307 1302.1653225,17.716535 1328.7401249999998,17.716535 1328.7401249999998,53.149605 1311.0235899999998,53.149605 1311.0235899999998,106.29920999999999 1328.7401249999998,106.29920999999999 1328.7401249999998,159.448815 1311.0235899999998,159.448815 1311.0235899999998,212.59842 1328.7401249999998,212.59842 1328.7401249999998,265.748025 1311.0235899999998,265.748025 1311.0235899999998,318.89763 1328.7401249999998,318.89763 1328.7401249999998,372.047235 1311.0235899999998,372.047235 1311.0235899999998,425.19684 1328.7401249999998,425.19684 1328.7401249999998,478.346445 1311.0235899999998,478.346445 1311.0235899999998,531.49605 1328.7401249999998,531.49605 1328.7401249999998,584.645655 1311.0235899999998,584.645655 1311.0235899999998,637.79526 1328.7401249999998,637.79526 1328.7401249999998,690.944865 1311.0235899999998,690.944865 1311.0235899999998,744.09447 1328.7401249999998,744.09447 1328.7401249999998,797.2440750000001 1311.0235899999998,797.2440750000001 1311.0235899999998,850.39368 1328.7401249999998,850.39368 1328.7401249999998,885.8267500000001 1302.1653225,885.8267500000001 1302.1653225,868.110215 1249.0157175,868.110215 1249.0157175,885.8267500000001 1222.440915,885.8267500000001 1222.440915,17.716535" stroke="orange" stroke-width="0.1mm"/>
        <rect fill="none" height="868.1102149999999px" stroke="green" stroke-width="0.1mm" width="106.29921000000013px" x="1222.440915px" y="17.716535px"/>
        <rect fill="none" height="17.078739740000003px" stroke="blue" stroke-width="0.63779526" width="52.51180973999999px" x="1249.33461513px" y="235.06298638px"/>
        <rect fill="none" height="17.078739740000003px" stroke="blue" stroke-width="0.63779526" width="52.51180973999999px" x="1249.33461513px" y="452.09054013px"/>
        <rect fill="none" height="17.078739739999946px" stroke="blue" stroke-width="0.63779526" width="52.51180973999999px" x="1249.33461513px" y="669.1180938800001px"/>
    </g>
</svg>
